<svg xmlns="http://www.w3.org/2000/svg" viewBox="0 0 32 32">
  <!-- spade top point -->
  <rect x="15" y="4" width="2" height="2" fill="#111"/>
  <rect x="14" y="6" width="4" height="2" fill="#111"/>
  <rect x="13" y="8" width="6" height="2" fill="#111"/>
  <!-- widening -->
  <rect x="11" y="10" width="10" height="2" fill="#111"/>
  <rect x="10" y="12" width="12" height="2" fill="#111"/>
  <!-- widest part - the lobes bulge out -->
  <rect x="8" y="14" width="16" height="2" fill="#111"/>
  <rect x="7" y="16" width="18" height="2" fill="#111"/>
  <!-- lobes curve back inward -->
  <rect x="7" y="18" width="7" height="2" fill="#111"/>
  <rect x="18" y="18" width="7" height="2" fill="#111"/>
  <rect x="8" y="20" width="5" height="2" fill="#111"/>
  <rect x="19" y="20" width="5" height="2" fill="#111"/>


  <!-- spade bottom (connected via stem) -->
  <rect x="15" y="18" width="2" height="3" fill="#111"/>
  <rect x="14" y="21" width="4" height="2" fill="#111"/>
  <rect x="12" y="23" width="8" height="2" fill="#111"/>
  <rect x="10" y="25" width="12" height="2" fill="#111"/>

  <!-- legs -->
  <rect x="12" y="27" width="2" height="2" fill="#111"/>
  <rect x="18" y="27" width="2" height="2" fill="#111"/>

  <!-- eyes -->
  <rect x="11" y="14" width="2" height="2" fill="#f0e8d0"/>
  <rect x="19" y="14" width="2" height="2" fill="#f0e8d0"/>
  <!-- eye shine -->
  <rect x="11" y="14" width="1" height="1" fill="#fff"/>
  <rect x="19" y="14" width="1" height="1" fill="#fff"/>

  <!-- arms raised up -->
  <rect x="4" y="12" width="3" height="2" fill="#111"/>
  <rect x="3" y="10" width="2" height="2" fill="#111"/>
  <rect x="25" y="12" width="3" height="2" fill="#111"/>
  <rect x="27" y="10" width="2" height="2" fill="#111"/>
</svg>
