<svg xmlns="http://www.w3.org/2000/svg" viewBox="0 0 32 32">
  <!-- card -->
  <rect x="4" y="1" width="24" height="30" rx="3" ry="3" fill="#f0e8d0"/>
  <rect x="4" y="1" width="24" height="30" rx="3" ry="3" fill="none"/>
  <!-- spade (scaled down 75%, centered on card) -->
  <g transform="translate(16,16) scale(0.75) translate(-16,-16)">
    <rect x="15" y="4" width="2" height="2" fill="#4a7a9f"/>
    <rect x="14" y="6" width="4" height="2" fill="#4a7a9f"/>
    <rect x="13" y="8" width="6" height="2" fill="#4a7a9f"/>
    <rect x="11" y="10" width="10" height="2" fill="#4a7a9f"/>
    <rect x="10" y="12" width="12" height="2" fill="#4a7a9f"/>
    <rect x="8" y="14" width="16" height="2" fill="#4a7a9f"/>
    <rect x="7" y="16" width="18" height="2" fill="#4a7a9f"/>
    <rect x="7" y="18" width="7" height="2" fill="#4a7a9f"/>
    <rect x="18" y="18" width="7" height="2" fill="#4a7a9f"/>
    <rect x="8" y="20" width="5" height="2" fill="#4a7a9f"/>
    <rect x="19" y="20" width="5" height="2" fill="#4a7a9f"/>
    <rect x="15" y="18" width="2" height="3" fill="#4a7a9f"/>
    <rect x="14" y="21" width="4" height="2" fill="#4a7a9f"/>
    <rect x="12" y="23" width="8" height="2" fill="#4a7a9f"/>
    <rect x="10" y="25" width="12" height="2" fill="#4a7a9f"/>
  </g>
</svg>
